<?xml version="1.0" encoding="UTF-8"?>
<svg width="22px" height="24px" viewBox="0 0 22 24" version="1.1" xmlns="http://www.w3.org/2000/svg" xmlns:xlink="http://www.w3.org/1999/xlink">
    <title>释放</title>
    <defs>
        <filter x="-60.0%" y="-60.0%" width="220.0%" height="220.0%" filterUnits="objectBoundingBox" id="filter-1">
            <feGaussianBlur stdDeviation="2" in="SourceGraphic"></feGaussianBlur>
        </filter>
    </defs>
    <g id="页面-1" stroke="none" stroke-width="1" fill="none" fill-rule="evenodd">
        <g id="大数据量表格备份-3" transform="translate(-313.000000, -603.000000)">
            <g id="释放" transform="translate(314.000000, 603.612093)">
                <rect id="Rectangle-80" x="0" y="0" width="20" height="20"></rect>
                <path d="M14.8076923,7 L5.19230769,7 C5.08609909,7 5,7.08609909 5,7.19230769 L5,16.8076923 C5,16.9139009 5.08609909,17 5.19230769,17 L14.8076923,17 C14.9139009,17 15,16.9139009 15,16.8076923 L15,7.19230769 C15,7.08609909 14.9139009,7 14.8076923,7 Z" id="Path" fill="#001E94" filter="url(#filter-1)"></path>
                <path d="M16.25,3.5 L3.75,3.5 C3.61192881,3.5 3.5,3.61192881 3.5,3.75 L3.5,16.25 C3.5,16.3880712 3.61192881,16.5 3.75,16.5 L16.25,16.5 C16.3880712,16.5 16.5,16.3880712 16.5,16.25 L16.5,3.75 C16.5,3.61192881 16.3880712,3.5 16.25,3.5 Z" id="Path备份" fill="#FFFFFF"></path>
                <path d="M13.5,10.25 C13.5,10.3880712 13.3880712,10.5 13.25,10.5 L6.75,10.5 C6.61192881,10.5 6.5,10.3880712 6.5,10.25 L6.5,9.75 C6.5,9.61192881 6.61192881,9.5 6.75,9.5 L13.25,9.5 C13.3880712,9.5 13.5,9.61192881 13.5,9.75 L13.5,10.25 Z" id="Path" fill="#323F83"></path>
            </g>
        </g>
    </g>
</svg>